<svg width="963" height="1024" viewBox="0 0 963 1024" fill="none" xmlns="http://www.w3.org/2000/svg">
<path d="M-9.72916 -81.7163C-10.0953 -97.026 -10.0852 -111.809 -9.72916 -126V-81.7163C-0.839329 290.012 229.827 972.465 1114 1046H-9.72916V-81.7163Z" fill="#F3A912"/>
<path d="M-24 -4.73644C-24.366 -19.6935 -24.356 -34.1356 -24 -48V-4.73644C-15.1119 358.428 215.508 1025.16 1099.5 1097H-24V-4.73644Z" fill="#23417A"/>
<path d="M205.839 879.987C202.11 881.131 200.02 883.327 198.565 887.537C196.974 892.021 197.611 896.459 200.111 898.106C201.02 898.701 202.02 898.838 204.247 898.701C207.521 898.518 207.567 898.564 206.021 901.629C204.839 903.917 200.929 905.015 197.974 903.871C197.11 903.551 196.792 903.642 196.337 904.375C195.701 905.427 195.611 905.381 197.611 906.067C202.02 907.532 207.022 905.884 208.884 902.27C209.704 900.714 213.703 881.909 213.385 881.085C212.931 879.896 208.339 879.255 205.839 879.987ZM209.885 881.817C210.385 882.138 210.294 883.373 209.066 889.23C208.294 893.073 207.385 896.413 207.067 896.596C206.793 896.779 205.566 896.962 204.429 896.962C201.065 896.962 200.02 894.995 200.884 890.282C201.474 887.079 202.566 884.791 204.338 883.19C206.202 881.451 208.43 880.902 209.885 881.817Z" fill="#FAFDFF"/>
<path d="M220.432 880.079C219.296 880.308 218.204 880.674 217.977 880.902C217.704 881.177 214.021 897.603 214.021 898.655C214.021 898.747 214.704 898.792 215.522 898.792H217.068L218.567 891.334C220.568 881.451 220.386 881.863 222.841 881.863C224.433 881.863 225.023 881.634 225.387 880.994C225.614 880.491 225.841 879.987 225.841 879.85C225.841 879.484 222.796 879.621 220.432 880.079Z" fill="#FAFDFF"/>
<path d="M247.435 880.079C246.436 880.308 245.48 880.674 245.298 880.857C244.98 881.177 239.934 904.649 239.934 905.747C239.934 905.976 240.57 906.113 241.39 906.022C242.798 905.884 242.844 905.793 243.572 902.453L244.253 899.021L247.026 898.976C248.527 898.93 250.344 898.609 251.118 898.198C254.345 896.505 256.891 892.433 257.482 887.903C258.301 881.634 254.255 878.477 247.435 880.079ZM253.755 882.87C254.436 883.739 254.573 884.471 254.391 887.217C253.982 893.165 251.073 896.962 246.935 896.962C245.48 896.962 244.935 896.779 244.935 896.276C244.935 895.91 245.572 892.707 246.299 889.184C247.072 885.661 247.662 882.641 247.662 882.504C247.662 882.412 248.118 882.092 248.709 881.863C250.254 881.177 252.801 881.68 253.755 882.87Z" fill="#FAFDFF"/>
<path d="M266.438 880.079C262.711 881.223 259.846 886.439 259.755 892.25C259.709 896.184 260.574 897.74 263.438 898.747C268.62 900.623 273.757 895.59 274.713 887.72C275.303 883.053 273.484 880.079 269.848 879.758C268.756 879.667 267.21 879.804 266.438 880.079ZM270.166 881.955C271.62 882.595 271.938 883.876 271.666 887.491C271.211 892.89 268.62 896.962 265.575 896.962C263.483 896.962 262.665 895.818 262.665 892.844C262.665 887.628 265.12 882.412 267.893 881.726C268.393 881.589 268.847 881.497 268.893 881.451C268.938 881.451 269.529 881.634 270.166 881.955Z" fill="#FAFDFF"/>
<path d="M227.933 880.811C227.16 883.465 225.387 893.165 225.387 894.72C225.387 897.145 226.842 898.609 229.615 899.021C231.525 899.342 235.888 898.701 237.071 897.969C237.343 897.786 238.344 894.034 239.253 889.642C240.162 885.249 240.981 881.268 241.117 880.811C241.299 880.17 241.072 880.033 239.798 880.033C238.252 880.033 238.161 880.125 237.752 882.184C234.752 896.642 234.843 896.413 233.843 896.688C231.888 897.237 229.933 896.962 229.024 896.047C228.523 895.544 228.114 894.949 228.114 894.766C228.114 894.537 228.752 891.426 229.479 887.903C230.251 884.334 230.842 881.085 230.842 880.719C230.842 879.713 228.251 879.804 227.933 880.811Z" fill="#FAFDFF"/>
<path d="M294.442 894.858C290.805 896.139 288.168 899.342 288.123 902.453C288.123 905.198 291.214 907.943 294.351 907.943C297.715 907.943 301.443 905.747 302.943 902.865C304.625 899.57 302.988 895.635 299.579 894.675C297.442 894.08 296.443 894.126 294.442 894.858Z" fill="#FAFDFF"/>
<path d="M115.827 895.178C114.054 895.91 111.781 897.832 111.053 899.25C110.144 900.989 110.189 904.283 111.099 905.564C113.553 909.133 120.373 908.63 123.873 904.603C127.692 900.211 125.101 894.629 119.236 894.72C118.009 894.72 116.463 894.949 115.827 895.178Z" fill="#FAFDFF"/>
<path d="M141.148 915.676C139.694 915.905 137.284 916.317 135.829 916.637L133.147 917.232L132.42 919.657C132.056 921.029 131.42 923.271 131.01 924.69C130.601 926.062 130.374 927.298 130.465 927.389C130.556 927.481 132.329 927.023 134.466 926.428C137.648 925.468 139.102 925.285 142.739 925.422C146.603 925.559 147.285 925.696 148.195 926.566C149.24 927.618 149.468 929.494 148.877 931.827C148.604 932.88 148.286 933.109 147.058 933.109C145.24 933.109 139.239 934.161 135.375 935.168C125.237 937.821 119.009 943.769 117.6 952.188C116.554 958.319 119.145 962.803 125.191 965.137C127.465 966.052 128.919 966.235 135.056 966.418C142.921 966.647 148.149 965.961 153.332 964.085L156.059 963.078L159.378 948.208C162.242 935.579 162.742 932.651 162.833 928.762C162.879 924.827 162.742 923.912 161.833 922.036C160.56 919.474 157.878 917.323 154.696 916.362C151.968 915.539 144.785 915.173 141.148 915.676ZM146.74 940.978C146.74 941.299 145.967 945.05 145.058 949.26C143.103 958.091 143.33 957.816 138.284 957.816C135.102 957.816 132.965 957.038 132.192 955.574C131.465 954.11 131.692 950.404 132.692 948.208C134.42 944.318 137.284 942.214 142.376 941.116C145.967 940.338 146.74 940.292 146.74 940.978Z" fill="#FAFDFF"/>
<path d="M181.79 915.722C177.79 916.271 173.107 917.369 170.561 918.467L168.698 919.29L163.833 941.619C161.151 953.927 158.833 964.45 158.696 965.045L158.469 966.052H165.924H173.425L177.79 946.103C180.199 935.122 182.29 926.016 182.427 925.833C182.609 925.696 184.381 925.513 186.427 925.422C190.7 925.284 192.747 926.154 193.292 928.304C193.519 929.128 192.291 935.533 189.7 947.292C187.564 957.038 185.836 965.274 185.836 965.548C185.836 965.915 187.973 966.052 193.201 965.96L200.566 965.823L204.338 948.894C206.384 939.56 208.294 930.866 208.566 929.54C209.021 927.435 209.293 927.023 210.84 926.245C211.931 925.696 213.522 925.33 214.931 925.33C218.568 925.33 220.341 926.657 220.386 929.357C220.386 930.455 214.568 957.908 212.795 965.045L212.567 966.052H220.068H227.569L228.296 962.94C233.571 939.377 235.524 929.768 235.524 927.389C235.479 923.729 234.388 921.121 231.843 918.924C228.979 916.362 225.932 915.493 219.932 915.539C214.568 915.584 210.749 916.454 206.702 918.513L204.066 919.84L201.883 918.467C200.702 917.689 198.702 916.728 197.429 916.362C194.61 915.493 186.291 915.172 181.79 915.722Z" fill="#FAFDFF"/>
<path d="M257.527 915.676C256.073 915.905 253.709 916.316 252.254 916.637L249.572 917.186L248.163 922.219C247.344 925.01 246.754 927.343 246.844 927.389C246.935 927.481 248.709 927.069 250.8 926.428C254.8 925.239 261.074 924.918 263.302 925.788C265.211 926.52 266.029 928.213 265.575 930.684L265.166 932.834L259.709 933.612C244.299 935.854 236.298 941.39 234.252 951.365C232.842 958.045 235.343 962.712 241.617 965.183C243.89 966.052 245.298 966.235 251.754 966.418C258.074 966.555 259.982 966.418 263.892 965.64C268.12 964.771 272.667 963.215 272.667 962.666C272.667 962.529 274.211 955.437 276.076 946.926C279.986 929.174 280.258 926.291 278.394 922.265C277.077 919.474 274.531 917.415 271.12 916.408C268.348 915.539 261.165 915.173 257.527 915.676ZM263.074 942.122C262.893 943.083 262.073 946.743 261.301 950.266C260.529 953.79 259.709 956.855 259.437 957.13C259.21 957.359 257.482 957.633 255.664 957.725C249.072 958.091 246.708 955.071 248.8 949.077C250.299 944.867 253.482 942.259 258.664 941.116C263.392 940.109 263.529 940.155 263.074 942.122Z" fill="#FAFDFF"/>
<path d="M315.444 915.95C308.899 917.46 304.08 920.892 301.852 925.696C300.215 929.173 300.124 934.618 301.625 937.501C303.034 940.109 306.399 943.037 310.854 945.462C314.944 947.658 316.763 949.626 316.763 951.731C316.763 953.332 314.99 955.391 313.263 955.803C310.398 956.535 303.352 955.254 298.533 953.057C297.942 952.783 297.488 953.652 296.169 957.679C295.215 960.378 294.488 962.757 294.488 962.895C294.488 963.398 298.807 965.091 301.852 965.823C305.67 966.738 313.945 966.692 317.445 965.823C326.31 963.489 331.038 958.457 331.629 950.77C331.856 948.024 331.72 947.109 330.856 945.142C329.537 942.076 326.128 938.828 321.537 936.265C316.718 933.612 314.944 932.01 314.944 930.272C314.944 928.304 316.945 926.474 319.536 926.062C321.9 925.696 326.992 926.382 329.356 927.389C330.856 928.03 330.902 928.03 331.356 926.794C331.901 925.422 334.492 917.918 334.492 917.735C334.492 917.643 333.129 917.14 331.447 916.591C327.4 915.356 319.536 914.989 315.444 915.95Z" fill="#FAFDFF"/>
<path d="M59.4553 916.82C59.4553 917.964 64.2741 960.882 64.7288 963.856L65.0015 965.594H71.9571H78.9125L91.0506 942.168C97.7332 929.265 103.643 918.009 104.098 917.186L105.007 915.722H98.1878H91.4142L84.2769 931.187C80.3672 939.697 76.7759 947.796 76.2757 949.168L75.3666 951.639L75.5484 949.123C75.6394 947.75 75.4575 940.246 75.0939 932.422C74.7756 924.598 74.4574 917.689 74.4574 916.957V915.722H66.9563H59.4553V916.82Z" fill="#FAFDFF"/>
<path d="M107.644 916.088C107.644 916.316 100.825 949.809 97.8243 964.313L97.5515 965.594H104.78H111.963L116.918 941.207C119.645 927.847 121.964 916.591 122.1 916.271C122.237 915.859 120.646 915.722 114.963 915.722C110.917 915.722 107.644 915.859 107.644 916.088Z" fill="#FAFDFF"/>
<path d="M285.804 915.813C285.804 915.905 283.485 927.069 280.667 940.658L275.576 965.366L282.577 965.503C286.44 965.549 289.669 965.549 289.805 965.457C289.987 965.274 299.943 916.866 299.943 916.179C299.943 915.813 285.94 915.447 285.804 915.813Z" fill="#FAFDFF"/>
</svg>
