<svg width="411" height="345" viewBox="0 0 411 345" fill="none" xmlns="http://www.w3.org/2000/svg">
<path d="M308.622 30.4849C309.663 30.9806 310.655 31.5258 311.696 31.8728C313.381 32.4676 315.117 32.9633 316.802 33.5086C318.984 34.2025 321.115 34.9461 323.297 35.6896C325.478 36.4331 327.66 37.2262 329.841 37.9698C331.576 38.515 333.312 39.0107 335.047 39.556C337.129 40.25 339.211 40.9935 341.294 41.6379C342.781 42.084 344.367 42.431 345.855 42.8771C346.945 43.1745 347.987 43.5711 349.276 44.0172C348.879 44.4633 348.631 44.8599 348.284 45.1077C344.417 47.9331 340.55 50.7586 336.732 53.584C332.518 56.7069 328.255 59.7801 324.041 62.903C320.868 65.2823 317.744 67.7112 314.571 70.0905C314.323 70.2887 314.026 70.4375 313.728 70.5862C313.629 70.5366 313.53 70.4375 313.381 70.3879C313.58 69.4956 313.828 68.6034 314.026 67.7607C315.315 62.3577 316.554 56.9051 317.843 51.5021C317.942 51.1056 318.19 50.7586 318.19 50.362C318.19 49.7176 318.24 48.9741 317.942 48.4784C316.604 46.1982 315.166 44.0172 313.728 41.7866C311.646 38.4655 309.564 35.0948 307.531 31.7737C307.283 31.3771 307.234 30.8814 307.085 30.4353C307.68 30.4849 308.176 30.4849 308.622 30.4849Z" fill="url(#paint0_linear_1_1711)"/>
<path d="M59.1958 96.4612C62.2697 96.9569 65.1948 97.4526 68.0703 97.9483C71.2432 98.4935 74.4162 98.9892 77.5396 99.6336C80.5639 100.278 83.5385 101.022 86.5132 101.815C89.587 102.608 92.6113 103.401 95.6355 104.293C99.7009 105.532 103.766 106.821 107.832 108.209C112.046 109.696 116.309 111.084 120.375 112.918C126.77 115.793 133.067 118.817 139.264 122.039C149.08 127.144 158.252 133.192 167.028 139.933C173.423 144.84 179.62 150.045 185.223 155.845C188.049 158.72 190.924 161.545 193.7 164.42C194.246 164.965 194.791 165.808 194.791 166.502C194.692 167.94 193.403 168.634 192.114 167.989C189.486 166.651 186.859 165.213 184.281 163.776C174.663 158.274 164.549 153.763 154.336 149.5C146.254 146.129 137.925 143.502 129.547 140.875C125.68 139.636 121.664 138.744 117.698 137.802C112.789 136.662 107.832 135.522 102.874 134.58C98.6102 133.737 94.2969 133.142 89.9837 132.547C85.9679 132.002 81.952 131.457 77.9362 131.06C73.8709 130.664 69.8055 130.465 65.6905 130.168C63.5091 130.019 61.3277 129.92 59.0967 129.772C59.1958 118.619 59.1958 107.614 59.1958 96.4612Z" fill="#23417A"/>
<path d="M335.047 96.6099C335.047 107.713 335.047 118.618 335.047 129.524C333.708 129.672 332.419 129.92 331.081 130.019C327.709 130.267 324.338 130.366 320.967 130.614C318.537 130.812 316.058 131.06 313.629 131.358C310.307 131.705 307.035 132.101 303.714 132.547C300.441 132.993 297.169 133.588 293.897 134.134C290.03 134.828 286.163 135.522 282.346 136.364C279.668 136.909 277.041 137.603 274.413 138.347C269.059 139.834 263.655 141.272 258.35 143.006C252.301 144.989 246.253 147.17 240.353 149.55C234.156 152.028 228.008 154.754 221.96 157.629C217.696 159.662 213.581 162.041 209.417 164.272C206.987 165.56 204.508 166.8 202.03 168.039C201.286 168.435 200.542 168.584 199.898 167.791C199.253 166.899 199.253 165.808 199.997 165.065C205.153 160.009 210.21 154.804 215.564 149.996C220.373 145.683 225.529 141.668 230.636 137.752C234.453 134.828 238.42 132.002 242.535 129.524C249.228 125.509 255.821 121.295 263.06 118.172C267.274 116.338 271.339 114.157 275.603 112.472C283.833 109.25 292.013 106.028 300.64 103.897C304.903 102.856 309.118 101.517 313.381 100.526C317.447 99.584 321.562 98.9892 325.627 98.2456C327.908 97.8491 330.139 97.4525 332.419 97.056C333.212 96.8081 334.055 96.709 335.047 96.6099Z" fill="#23417A"/>
<path d="M111.897 81.8383C114.178 82.1357 116.458 82.3836 118.739 82.7306C120.772 83.028 122.854 83.4741 124.886 83.8707C126.473 84.1681 128.059 84.5646 129.596 84.9116C131.48 85.3577 133.364 85.8038 135.248 86.25C136.587 86.5474 137.925 86.8944 139.214 87.2413C141.297 87.8362 143.329 88.431 145.412 89.0754C148.436 90.0668 151.46 91.0086 154.435 92.0991C157.509 93.2392 160.583 94.4288 163.557 95.7672C168.416 97.9978 173.175 100.476 177.984 102.806C183.19 105.284 187.9 108.655 192.56 112.026C193.75 112.869 194.742 113.909 195.783 114.95C196.774 115.942 197.617 116.239 198.757 114.95C202.823 110.241 206.987 105.582 211.301 101.121C213.482 98.8405 216.159 97.056 218.489 94.9245C224.34 89.6207 230.785 85.0603 237.18 80.4504C243.377 75.9892 250.07 72.5194 256.664 68.7521C260.829 66.3728 265.34 64.4892 269.753 62.4569C272.975 60.9698 276.248 59.6314 279.569 58.3426C281.304 57.6982 283.089 57.3017 284.874 56.7564C286.213 56.3599 287.502 55.9138 288.84 55.5172C290.278 55.1207 291.765 54.7241 293.203 54.3771C294.839 53.931 296.475 53.4849 298.161 53.0883C299.252 52.8405 300.392 52.6918 301.483 52.4439C302.623 52.1961 303.763 51.9483 304.904 51.7004C305.3 51.6013 305.697 51.5517 306.044 51.5021C307.63 51.2047 309.167 50.8577 310.754 50.6595C311.844 50.5107 312.935 50.6099 314.125 50.6099C314.522 51.6508 313.778 52.097 313.084 52.3944C308.969 54.1789 304.755 55.8146 300.689 57.6487C295.434 59.9784 290.129 62.3082 285.023 64.9849C279.768 67.7112 274.562 70.6357 269.555 73.7586C263.308 77.625 257.259 81.7392 251.211 85.903C248.187 87.9849 245.361 90.3146 242.584 92.6444C238.965 95.6185 235.296 98.6422 231.875 101.815C227.116 106.177 222.456 110.638 217.944 115.248C214.127 119.164 210.507 123.278 206.839 127.343C204.856 129.573 202.922 131.853 200.939 134.084C200.493 134.58 199.947 135.125 199.303 135.422C198.162 135.968 197.072 135.67 196.229 134.679C194.395 132.597 192.61 130.465 190.676 128.433C185.52 123.03 179.819 118.321 173.522 114.306C168.614 111.233 163.805 107.961 158.748 105.185C151.311 101.121 143.676 97.3534 136.041 93.6853C131.183 91.3556 126.076 89.4224 121.119 87.2909C118.243 86.0517 115.417 84.8125 112.591 83.6228C111.649 83.2263 111.5 82.8297 111.897 81.8383Z" fill="url(#paint1_linear_1_1711)"/>
<path d="M6.14771 280.709C12.4441 280.709 18.7405 280.709 25.1856 280.709C25.1856 274.315 25.1856 268.019 25.1856 261.675C30.1929 261.675 35.0516 261.675 39.9598 261.675C39.9598 267.97 39.9598 274.215 39.9598 280.659C46.3553 280.659 52.7013 280.659 59.0968 280.659C59.0968 285.666 59.0968 290.474 59.0968 295.431C52.8004 295.431 46.504 295.431 40.1085 295.431C40.1085 301.825 40.1085 308.121 40.1085 314.515C35.1507 314.515 30.2921 314.515 25.2847 314.515C25.2847 308.22 25.2847 301.974 25.2847 295.481C18.8396 295.481 12.4937 295.481 6.14771 295.481C6.14771 290.573 6.14771 285.616 6.14771 280.709Z" fill="#23417A"/>
<path d="M194.99 285.071C194.791 278.875 192.808 273.422 188.644 268.813C183.537 263.162 177.042 260.386 169.507 260.237C161.029 260.088 152.601 260.188 144.123 260.188C143.776 260.188 143.429 260.237 143.032 260.287V313.722C143.28 313.772 143.429 313.821 143.577 313.821C151.807 313.623 159.988 313.325 168.218 313.177C171.787 313.127 175.208 312.483 178.53 311.194C185.421 308.468 190.627 303.957 193.353 296.918C194.742 293.101 195.089 289.136 194.99 285.071ZM177.935 293.002C176.398 297.265 173.423 300.438 168.366 300.735C165.392 300.933 162.367 301.131 159.244 301.28V272.134C161.078 272.134 162.863 272.084 164.648 272.134C166.185 272.183 167.771 272.282 169.259 272.629C172.085 273.323 174.415 274.91 176.1 277.289C179.472 282.196 179.819 287.649 177.935 293.002Z" fill="#23417A"/>
<path d="M299.5 308.864C297.12 305.147 294.74 301.478 292.36 297.761C291.27 296.075 291.27 295.877 292.955 294.787C295.385 293.25 297.269 291.168 298.359 288.491C300.342 283.782 300.888 278.875 299.747 273.869C298.805 269.754 296.674 266.334 293.154 263.905C289.435 261.377 285.271 260.237 280.809 260.188C272.182 260.138 263.556 260.138 254.979 260.138C252.996 260.138 252.996 260.088 252.996 262.121C252.996 278.578 252.996 294.985 252.996 311.442C252.996 311.987 252.946 312.582 253.045 313.078C253.095 313.375 253.491 313.772 253.739 313.772C257.953 313.772 262.167 313.672 266.332 313.623C267.125 313.623 267.869 313.623 268.811 313.623V298.802C271.538 298.802 274.116 298.802 276.694 298.851C276.991 298.851 277.338 299.248 277.487 299.545C278.28 301.082 279.024 302.668 279.718 304.254C281.106 307.228 282.395 310.252 283.783 313.177C283.932 313.474 284.428 313.722 284.775 313.722C288.444 313.722 292.162 313.623 295.831 313.623C297.913 313.623 299.946 313.623 302.325 313.623C301.383 311.888 300.441 310.351 299.5 308.864ZM283.684 284.476C282.841 285.567 281.751 286.31 280.412 286.36C277.041 286.608 273.62 286.657 270.199 286.856C269.108 286.905 268.86 286.409 268.86 285.468C268.91 283.386 268.86 281.353 268.86 279.272C268.86 277.19 268.86 275.157 268.86 273.075C268.86 272.431 268.96 272.034 269.753 272.034C273.223 272.183 276.694 272.282 280.164 272.53C282.693 272.728 284.279 274.364 284.874 276.744C285.568 279.47 285.519 282.147 283.684 284.476Z" fill="#23417A"/>
<path d="M351.755 272.183C342.533 272.183 333.411 272.183 324.239 272.183C324.239 275.058 324.239 277.784 324.239 280.659C332.667 280.659 340.947 280.659 349.325 280.659C349.325 284.675 349.325 288.541 349.325 292.556C340.947 292.556 332.667 292.556 324.239 292.556C324.239 295.481 324.239 298.256 324.239 301.131C333.807 301.131 343.178 301.131 352.647 301.131C352.647 305.295 352.647 309.409 352.647 313.623C337.774 313.623 322.95 313.623 307.977 313.623C307.977 295.877 307.977 278.082 307.977 260.188C322.504 260.188 337.08 260.188 351.705 260.188C351.755 264.203 351.755 268.069 351.755 272.183Z" fill="#23417A"/>
<path d="M242.188 280.61C242.188 284.675 242.188 288.591 242.188 292.556C233.759 292.556 225.381 292.556 216.903 292.556C216.903 295.431 216.903 298.256 216.903 301.131C226.422 301.131 235.891 301.131 245.46 301.131C245.46 305.295 245.46 309.409 245.46 313.623C230.735 313.623 216.011 313.623 201.187 313.623C201.187 295.877 201.187 278.082 201.187 260.188C215.663 260.188 230.091 260.188 244.518 260.188C244.518 263.162 244.518 266.037 244.518 268.961C244.518 272.084 244.518 272.084 241.345 272.084C233.561 272.084 225.777 272.084 217.994 272.084C217.647 272.084 217.3 272.084 216.853 272.084C216.853 274.909 216.853 277.685 216.853 280.56C225.331 280.61 233.71 280.61 242.188 280.61Z" fill="#23417A"/>
<path d="M403.167 267.276L401.283 271.539C401.283 271.539 400.638 272.728 400.39 273.323C399.944 274.364 399.597 275.455 399.25 276.545C398.953 277.537 398.407 277.487 397.614 277.14C395.135 276 392.706 274.711 390.128 273.869C386.955 272.877 383.683 272.282 380.411 271.737C379.469 271.588 378.378 271.985 377.485 272.431C375.949 273.175 376.097 276.198 377.783 277.14C379.369 277.983 381.105 278.627 382.79 279.222C386.856 280.659 391.07 281.849 395.036 283.534C397.217 284.476 399.101 286.162 401.085 287.599C401.283 287.748 401.283 288.144 401.283 288.442C406.191 293.597 405.695 299.446 401.283 305.692C401.283 306.039 400.886 306.435 400.688 306.782C400.589 306.931 400.44 306.981 400.341 307.08C397.168 310.847 392.904 312.384 388.244 313.127C381.204 314.267 374.313 313.375 367.62 311.194C363.901 310.004 360.48 308.17 357.357 305.791C357.109 305.593 356.911 304.948 357.01 304.651C358.596 301.131 360.282 297.612 361.918 294.093C362.265 293.399 362.612 293.349 363.306 293.795C368.314 297.364 373.767 300.14 379.915 300.983C381.848 301.231 383.931 300.884 385.914 300.685C387.5 300.487 387.599 299.05 387.798 297.86C387.996 296.918 387.649 296.026 386.806 295.381C384.228 293.498 381.204 292.853 378.229 292.11C373.718 290.97 369.305 289.731 365.389 287.054C361.075 284.129 359.489 280.065 359.935 275.108C360.332 270.746 362.265 267.078 365.587 264.252C368.413 261.823 371.834 260.584 375.403 259.791C379.369 258.899 383.336 259.147 387.351 259.642C391.318 260.088 399.597 264.153 402.572 265.64C403.216 265.937 403.464 266.681 403.167 267.276Z" fill="#23417A"/>
<path d="M112.938 300.19C112.938 304.7 112.938 309.112 112.938 313.672C100.246 313.672 87.604 313.672 74.9121 313.672C74.9121 295.976 74.9121 278.181 74.9121 260.287C80.1674 260.287 85.373 260.287 90.6778 260.287C90.6778 273.571 90.6778 286.806 90.6778 300.19C98.0649 300.19 105.452 300.19 112.938 300.19Z" fill="#23417A"/>
<path d="M118.193 260.237C123.746 260.237 129.101 260.237 134.455 260.237C134.455 278.032 134.455 295.728 134.455 313.524C133.959 313.573 133.563 313.573 133.116 313.573C128.456 313.623 123.845 313.623 119.185 313.722C117.995 313.772 118.144 313.078 118.144 312.384C118.144 302.123 118.144 291.912 118.144 281.651C118.144 275.009 118.144 268.416 118.144 261.774C118.193 261.328 118.193 260.832 118.193 260.237Z" fill="#23417A"/>
<path d="M118.838 255.924C121.664 251.116 124.292 246.605 126.87 242.144C131.332 243.681 135.695 245.218 140.256 246.804C138.025 248.836 136.042 250.67 134.059 252.455C133.414 253.049 132.571 253.446 132.125 254.14C131.034 255.677 129.597 256.024 127.812 255.924C124.986 255.825 122.11 255.924 118.838 255.924Z" fill="#23417A"/>
<path d="M91.3223 226.481H106.394V231.636H84.9268V203.927H105.898V209.082H91.3223V226.481ZM90.8265 215.08H104.163V220.086H90.8265V215.08Z" fill="#F3A912"/>
<path d="M136.438 232.131C134.207 232.131 132.075 231.834 130.042 231.239C128.01 230.644 126.374 229.851 125.134 228.909L127.316 224.101C128.506 224.944 129.894 225.638 131.53 226.183C133.166 226.728 134.802 226.976 136.438 226.976C137.727 226.976 138.719 226.828 139.512 226.58C140.305 226.332 140.85 225.985 141.247 225.539C141.594 225.093 141.792 224.597 141.792 224.002C141.792 223.259 141.495 222.664 140.9 222.218C140.305 221.772 139.561 221.425 138.619 221.127C137.677 220.83 136.636 220.582 135.446 220.334C134.306 220.086 133.166 219.789 131.976 219.392C130.836 219.045 129.795 218.55 128.803 217.955C127.861 217.36 127.068 216.616 126.473 215.675C125.878 214.733 125.58 213.494 125.58 212.056C125.58 210.47 126.027 209.032 126.87 207.744C127.712 206.455 129.001 205.414 130.737 204.621C132.472 203.828 134.653 203.431 137.231 203.431C138.966 203.431 140.702 203.629 142.387 204.026C144.073 204.422 145.56 205.067 146.849 205.86L144.866 210.718C143.577 209.974 142.288 209.429 140.999 209.082C139.71 208.735 138.421 208.537 137.182 208.537C135.942 208.537 134.901 208.685 134.108 208.983C133.315 209.28 132.769 209.627 132.422 210.123C132.075 210.569 131.926 211.114 131.926 211.709C131.926 212.403 132.224 212.998 132.819 213.444C133.414 213.89 134.157 214.237 135.099 214.485C136.041 214.733 137.083 215.03 138.272 215.278C139.413 215.526 140.553 215.823 141.693 216.17C142.834 216.517 143.875 216.963 144.866 217.558C145.808 218.153 146.601 218.897 147.196 219.838C147.791 220.78 148.089 221.97 148.089 223.457C148.089 224.994 147.643 226.431 146.8 227.72C145.907 229.009 144.618 230.05 142.883 230.843C141.297 231.735 139.066 232.131 136.438 232.131Z" fill="#F3A912"/>
<path d="M181.703 232.131C179.571 232.131 177.588 231.784 175.753 231.091C173.919 230.397 172.332 229.405 170.994 228.116C169.655 226.828 168.614 225.291 167.821 223.556C167.077 221.821 166.681 219.888 166.681 217.806C166.681 215.724 167.077 213.791 167.821 212.056C168.564 210.321 169.606 208.784 170.994 207.496C172.332 206.207 173.968 205.216 175.753 204.522C177.538 203.828 179.571 203.481 181.752 203.481C184.132 203.481 186.313 203.877 188.247 204.72C190.18 205.562 191.816 206.752 193.155 208.388L189.04 212.205C188.098 211.114 187.057 210.321 185.867 209.776C184.727 209.231 183.438 208.983 182.05 208.983C180.761 208.983 179.571 209.181 178.48 209.627C177.389 210.073 176.447 210.668 175.654 211.461C174.861 212.254 174.266 213.196 173.82 214.287C173.374 215.377 173.175 216.567 173.175 217.905C173.175 219.244 173.374 220.433 173.82 221.524C174.266 222.614 174.861 223.556 175.654 224.349C176.447 225.142 177.389 225.737 178.48 226.183C179.571 226.629 180.761 226.828 182.05 226.828C183.438 226.828 184.677 226.58 185.867 226.034C187.007 225.489 188.098 224.647 189.04 223.556L193.155 227.373C191.816 228.959 190.18 230.198 188.247 231.041C186.313 231.685 184.132 232.131 181.703 232.131Z" fill="#F3A912"/>
<path d="M226.174 232.131C223.992 232.131 221.96 231.784 220.076 231.041C218.192 230.347 216.605 229.306 215.267 228.017C213.928 226.728 212.837 225.192 212.094 223.457C211.35 221.722 210.953 219.838 210.953 217.756C210.953 215.675 211.35 213.791 212.094 212.056C212.837 210.321 213.928 208.784 215.267 207.496C216.655 206.207 218.241 205.216 220.076 204.472C221.91 203.778 223.943 203.381 226.075 203.381C228.256 203.381 230.289 203.728 232.123 204.472C233.958 205.166 235.544 206.207 236.932 207.496C238.271 208.784 239.362 210.321 240.105 212.006C240.849 213.741 241.246 215.625 241.246 217.707C241.246 219.789 240.849 221.672 240.105 223.407C239.362 225.142 238.271 226.679 236.932 227.968C235.594 229.256 233.958 230.248 232.123 230.942C230.338 231.784 228.355 232.131 226.174 232.131ZM226.174 226.629C227.413 226.629 228.554 226.431 229.595 225.985C230.636 225.539 231.578 224.944 232.371 224.151C233.164 223.358 233.759 222.416 234.205 221.325C234.652 220.235 234.85 219.045 234.85 217.707C234.85 216.369 234.652 215.179 234.205 214.088C233.759 212.998 233.164 212.056 232.371 211.263C231.578 210.47 230.685 209.875 229.595 209.429C228.554 208.983 227.413 208.784 226.124 208.784C224.885 208.784 223.745 208.983 222.703 209.429C221.662 209.875 220.72 210.47 219.927 211.263C219.134 212.056 218.539 212.998 218.093 214.088C217.646 215.179 217.448 216.369 217.448 217.707C217.448 218.996 217.646 220.185 218.093 221.276C218.539 222.366 219.134 223.308 219.927 224.101C220.72 224.894 221.613 225.489 222.703 225.935C223.745 226.431 224.934 226.629 226.174 226.629Z" fill="#F3A912"/>
<path d="M262.019 231.636V203.927H268.414V226.431H282.296V231.636H262.019Z" fill="#F3A912"/>
<path d="M298.26 231.636L310.605 203.927H316.951L329.345 231.636H322.603L312.439 207.149H314.968L304.804 231.636H298.26ZM304.457 225.688L306.143 220.83H320.421L322.157 225.688H304.457Z" fill="#F3A912"/>
<defs>
<linearGradient id="paint0_linear_1_1711" x1="307.2" y1="50.5107" x2="349.274" y2="50.5107" gradientUnits="userSpaceOnUse">
<stop stop-color="#EF442D"/>
<stop offset="1" stop-color="#F2A213"/>
</linearGradient>
<linearGradient id="paint1_linear_1_1711" x1="111.691" y1="93.1349" x2="314.236" y2="93.1349" gradientUnits="userSpaceOnUse">
<stop stop-color="#EF442D"/>
<stop offset="1" stop-color="#F2A213"/>
</linearGradient>
</defs>
</svg>
